<mxfile host="app.diagrams.net" modified="2021-12-02T09:46:32.647Z" agent="5.0 (Windows NT 10.0; Win64; x64) AppleWebKit/537.36 (KHTML, like Gecko) Chrome/96.0.4664.45 Safari/537.36" etag="RIRIDNNVU_AKM6PkoS8S" version="15.8.8" type="github">
  <diagram id="AZqq64l5wvCMfFvy8mDc" name="Page-1">
    <mxGraphModel dx="1730" dy="980" grid="0" gridSize="10" guides="1" tooltips="1" connect="1" arrows="1" fold="1" page="0" pageScale="1" pageWidth="8027" pageHeight="11069" background="#F0F0F0" math="0" shadow="0">
      <root>
        <mxCell id="0" />
        <mxCell id="1" parent="0" />
        <mxCell id="qf12VofWcmTvXpMIh8Xu-1" value="WedUI" style="rounded=1;whiteSpace=wrap;html=1;fontSize=20;fontStyle=1;fontFamily=Comic Sans MS;fillColor=#fff2cc;strokeColor=#d6b656;" vertex="1" parent="1">
          <mxGeometry x="210" y="50.5" width="160" height="159" as="geometry" />
        </mxCell>
        <mxCell id="qf12VofWcmTvXpMIh8Xu-3" value="" style="rounded=1;whiteSpace=wrap;html=1;fontFamily=Comic Sans MS;fontSize=20;fontStyle=1;fillColor=#fff2cc;strokeColor=#d6b656;" vertex="1" parent="1">
          <mxGeometry x="1420" y="270" width="160" height="150" as="geometry" />
        </mxCell>
        <mxCell id="qf12VofWcmTvXpMIh8Xu-39" value="" style="rounded=0;whiteSpace=wrap;html=1;fontFamily=Comic Sans MS;fontSize=20;fillColor=#f5f5f5;strokeColor=#666666;gradientColor=#b3b3b3;" vertex="1" parent="1">
          <mxGeometry x="400" y="30" width="1000" height="410" as="geometry" />
        </mxCell>
        <mxCell id="qf12VofWcmTvXpMIh8Xu-12" value="&lt;span style=&quot;font-weight: 700&quot;&gt;Remote Control Service Client&lt;/span&gt;" style="text;html=1;strokeColor=#b85450;fillColor=#f8cecc;align=center;verticalAlign=middle;whiteSpace=wrap;rounded=0;fontFamily=Comic Sans MS;fontSize=20;" vertex="1" parent="1">
          <mxGeometry x="760" y="50" width="330" height="30" as="geometry" />
        </mxCell>
        <mxCell id="qf12VofWcmTvXpMIh8Xu-13" value="DPI Status" style="rounded=1;whiteSpace=wrap;html=1;fontFamily=Comic Sans MS;fontSize=20;fontStyle=1;fillColor=#f8cecc;strokeColor=#b85450;" vertex="1" parent="1">
          <mxGeometry x="420" y="160" width="210" height="160" as="geometry" />
        </mxCell>
        <mxCell id="qf12VofWcmTvXpMIh8Xu-14" value="Black List" style="rounded=1;whiteSpace=wrap;html=1;fontFamily=Comic Sans MS;fontSize=20;fontStyle=1;fillColor=#f8cecc;strokeColor=#b85450;" vertex="1" parent="1">
          <mxGeometry x="670" y="160" width="215" height="157.5" as="geometry" />
        </mxCell>
        <mxCell id="qf12VofWcmTvXpMIh8Xu-15" value="Block Traffic" style="rounded=1;whiteSpace=wrap;html=1;fontFamily=Comic Sans MS;fontSize=20;fontStyle=1;fillColor=#f8cecc;strokeColor=#b85450;" vertex="1" parent="1">
          <mxGeometry x="930" y="162" width="200" height="158" as="geometry" />
        </mxCell>
        <mxCell id="qf12VofWcmTvXpMIh8Xu-16" value="" style="endArrow=classic;html=1;rounded=0;fontFamily=Comic Sans MS;fontSize=20;" edge="1" parent="1">
          <mxGeometry width="50" height="50" relative="1" as="geometry">
            <mxPoint x="1470" y="130" as="sourcePoint" />
            <mxPoint x="1470" y="160" as="targetPoint" />
          </mxGeometry>
        </mxCell>
        <mxCell id="qf12VofWcmTvXpMIh8Xu-17" value="" style="endArrow=classic;html=1;rounded=0;fontFamily=Comic Sans MS;fontSize=20;entryX=0.25;entryY=0;entryDx=0;entryDy=0;" edge="1" parent="1">
          <mxGeometry width="50" height="50" relative="1" as="geometry">
            <mxPoint x="1499.85" y="120" as="sourcePoint" />
            <mxPoint x="1499.85" y="160" as="targetPoint" />
            <Array as="points">
              <mxPoint x="1500.1399999999999" y="150" />
            </Array>
          </mxGeometry>
        </mxCell>
        <mxCell id="qf12VofWcmTvXpMIh8Xu-18" value="" style="endArrow=classic;html=1;rounded=0;fontFamily=Comic Sans MS;fontSize=20;entryX=0.25;entryY=0;entryDx=0;entryDy=0;" edge="1" parent="1">
          <mxGeometry width="50" height="50" relative="1" as="geometry">
            <mxPoint x="1530" y="110" as="sourcePoint" />
            <mxPoint x="1530" y="160" as="targetPoint" />
            <Array as="points">
              <mxPoint x="1530.29" y="150" />
            </Array>
          </mxGeometry>
        </mxCell>
        <mxCell id="qf12VofWcmTvXpMIh8Xu-20" value="" style="endArrow=none;html=1;rounded=0;fontFamily=Comic Sans MS;fontSize=20;exitX=0.5;exitY=0;exitDx=0;exitDy=0;" edge="1" parent="1" source="qf12VofWcmTvXpMIh8Xu-15">
          <mxGeometry width="50" height="50" relative="1" as="geometry">
            <mxPoint x="1010" y="170" as="sourcePoint" />
            <mxPoint x="1030" y="130" as="targetPoint" />
          </mxGeometry>
        </mxCell>
        <mxCell id="qf12VofWcmTvXpMIh8Xu-21" value="" style="endArrow=none;html=1;rounded=0;fontFamily=Comic Sans MS;fontSize=20;" edge="1" parent="1">
          <mxGeometry width="50" height="50" relative="1" as="geometry">
            <mxPoint x="1030" y="130" as="sourcePoint" />
            <mxPoint x="1470" y="130" as="targetPoint" />
          </mxGeometry>
        </mxCell>
        <mxCell id="qf12VofWcmTvXpMIh8Xu-22" value="" style="endArrow=none;html=1;rounded=0;fontFamily=Comic Sans MS;fontSize=20;exitX=0.5;exitY=0;exitDx=0;exitDy=0;" edge="1" parent="1">
          <mxGeometry width="50" height="50" relative="1" as="geometry">
            <mxPoint x="769.75" y="160" as="sourcePoint" />
            <mxPoint x="770.25" y="120" as="targetPoint" />
          </mxGeometry>
        </mxCell>
        <mxCell id="qf12VofWcmTvXpMIh8Xu-23" value="" style="endArrow=none;html=1;rounded=0;fontFamily=Comic Sans MS;fontSize=20;exitX=0.5;exitY=0;exitDx=0;exitDy=0;" edge="1" parent="1">
          <mxGeometry width="50" height="50" relative="1" as="geometry">
            <mxPoint x="530" y="160" as="sourcePoint" />
            <mxPoint x="531" y="110" as="targetPoint" />
          </mxGeometry>
        </mxCell>
        <mxCell id="qf12VofWcmTvXpMIh8Xu-24" value="" style="endArrow=none;html=1;rounded=0;fontFamily=Comic Sans MS;fontSize=20;" edge="1" parent="1">
          <mxGeometry width="50" height="50" relative="1" as="geometry">
            <mxPoint x="770" y="120" as="sourcePoint" />
            <mxPoint x="1500" y="120" as="targetPoint" />
          </mxGeometry>
        </mxCell>
        <mxCell id="qf12VofWcmTvXpMIh8Xu-25" value="" style="endArrow=none;html=1;rounded=0;fontFamily=Comic Sans MS;fontSize=20;" edge="1" parent="1">
          <mxGeometry width="50" height="50" relative="1" as="geometry">
            <mxPoint x="530" y="110" as="sourcePoint" />
            <mxPoint x="1530" y="110" as="targetPoint" />
          </mxGeometry>
        </mxCell>
        <mxCell id="qf12VofWcmTvXpMIh8Xu-26" value="&lt;span style=&quot;font-weight: 700&quot;&gt;DPI App&lt;/span&gt;" style="text;html=1;strokeColor=none;fillColor=none;align=center;verticalAlign=middle;whiteSpace=wrap;rounded=0;fontFamily=Comic Sans MS;fontSize=20;fontColor=none;" vertex="1" parent="1">
          <mxGeometry x="1430" y="290" width="120" height="30" as="geometry" />
        </mxCell>
        <mxCell id="qf12VofWcmTvXpMIh8Xu-30" value="" style="rounded=0;whiteSpace=wrap;html=1;fontFamily=Comic Sans MS;fontSize=20;fontColor=none;" vertex="1" parent="1">
          <mxGeometry x="1440" y="340" width="110" height="60" as="geometry" />
        </mxCell>
        <mxCell id="qf12VofWcmTvXpMIh8Xu-28" value="Libnetfilter" style="text;html=1;strokeColor=#36393d;fillColor=#f9f7ed;align=center;verticalAlign=middle;whiteSpace=wrap;rounded=0;fontFamily=Comic Sans MS;fontSize=20;fontStyle=1" vertex="1" parent="1">
          <mxGeometry x="1440" y="340" width="120" height="60" as="geometry" />
        </mxCell>
        <mxCell id="qf12VofWcmTvXpMIh8Xu-31" value="Function call" style="text;html=1;strokeColor=none;fillColor=none;align=center;verticalAlign=middle;whiteSpace=wrap;rounded=0;fontFamily=Comic Sans MS;fontSize=20;fontColor=none;" vertex="1" parent="1">
          <mxGeometry x="530" y="120" width="170" height="20" as="geometry" />
        </mxCell>
        <mxCell id="qf12VofWcmTvXpMIh8Xu-33" value="Function call" style="text;html=1;strokeColor=none;fillColor=none;align=center;verticalAlign=middle;whiteSpace=wrap;rounded=0;fontFamily=Comic Sans MS;fontSize=20;fontColor=none;" vertex="1" parent="1">
          <mxGeometry x="790" y="120" width="170" height="20" as="geometry" />
        </mxCell>
        <mxCell id="qf12VofWcmTvXpMIh8Xu-34" value="Function call" style="text;html=1;strokeColor=none;fillColor=none;align=center;verticalAlign=middle;whiteSpace=wrap;rounded=0;fontFamily=Comic Sans MS;fontSize=20;fontColor=none;" vertex="1" parent="1">
          <mxGeometry x="1010" y="130" width="170" height="20" as="geometry" />
        </mxCell>
        <mxCell id="qf12VofWcmTvXpMIh8Xu-35" value="" style="endArrow=classic;startArrow=classic;html=1;rounded=0;fontFamily=Comic Sans MS;fontSize=20;fontColor=none;exitX=0.565;exitY=1.042;exitDx=0;exitDy=0;exitPerimeter=0;" edge="1" parent="1" source="qf12VofWcmTvXpMIh8Xu-51">
          <mxGeometry width="50" height="50" relative="1" as="geometry">
            <mxPoint x="240" y="320" as="sourcePoint" />
            <mxPoint x="730" y="320" as="targetPoint" />
            <Array as="points">
              <mxPoint x="300" y="380" />
              <mxPoint x="730" y="380" />
            </Array>
          </mxGeometry>
        </mxCell>
        <mxCell id="qf12VofWcmTvXpMIh8Xu-36" value="" style="endArrow=classic;startArrow=classic;html=1;rounded=0;fontFamily=Comic Sans MS;fontSize=20;fontColor=none;entryX=0.5;entryY=1;entryDx=0;entryDy=0;" edge="1" parent="1" target="qf12VofWcmTvXpMIh8Xu-13">
          <mxGeometry width="50" height="50" relative="1" as="geometry">
            <mxPoint x="330" y="320" as="sourcePoint" />
            <mxPoint x="680" y="320" as="targetPoint" />
            <Array as="points">
              <mxPoint x="330" y="360" />
              <mxPoint x="390" y="360" />
              <mxPoint x="525" y="360" />
            </Array>
          </mxGeometry>
        </mxCell>
        <mxCell id="qf12VofWcmTvXpMIh8Xu-37" value="" style="endArrow=classic;startArrow=classic;html=1;rounded=0;fontFamily=Comic Sans MS;fontSize=20;fontColor=none;entryX=0.357;entryY=1;entryDx=0;entryDy=0;entryPerimeter=0;" edge="1" parent="1" target="qf12VofWcmTvXpMIh8Xu-51">
          <mxGeometry width="50" height="50" relative="1" as="geometry">
            <mxPoint x="1020" y="320" as="sourcePoint" />
            <mxPoint x="210" y="320" as="targetPoint" />
            <Array as="points">
              <mxPoint x="1020" y="400" />
              <mxPoint x="270" y="400" />
            </Array>
          </mxGeometry>
        </mxCell>
        <mxCell id="qf12VofWcmTvXpMIh8Xu-42" value="Function call" style="text;html=1;strokeColor=none;fillColor=none;align=center;verticalAlign=middle;whiteSpace=wrap;rounded=0;fontFamily=Comic Sans MS;fontSize=20;fontColor=none;" vertex="1" parent="1">
          <mxGeometry x="400" y="340" width="130" height="20" as="geometry" />
        </mxCell>
        <mxCell id="qf12VofWcmTvXpMIh8Xu-43" value="Function call" style="text;html=1;strokeColor=none;fillColor=none;align=center;verticalAlign=middle;whiteSpace=wrap;rounded=0;fontFamily=Comic Sans MS;fontSize=20;fontColor=none;" vertex="1" parent="1">
          <mxGeometry x="560" y="360" width="170" height="20" as="geometry" />
        </mxCell>
        <mxCell id="qf12VofWcmTvXpMIh8Xu-45" value="Function call" style="text;html=1;strokeColor=none;fillColor=none;align=center;verticalAlign=middle;whiteSpace=wrap;rounded=0;fontFamily=Comic Sans MS;fontSize=20;fontColor=none;" vertex="1" parent="1">
          <mxGeometry x="850" y="380" width="170" height="20" as="geometry" />
        </mxCell>
        <mxCell id="qf12VofWcmTvXpMIh8Xu-47" value="CMS" style="rounded=1;whiteSpace=wrap;html=1;fontFamily=Comic Sans MS;fontSize=20;fillColor=#d5e8d4;gradientColor=#97d077;strokeColor=#82b366;" vertex="1" parent="1">
          <mxGeometry x="1440" y="161" width="120" height="60" as="geometry" />
        </mxCell>
        <mxCell id="qf12VofWcmTvXpMIh8Xu-48" value="" style="endArrow=classic;html=1;rounded=0;fontFamily=Comic Sans MS;fontSize=20;fontColor=none;entryX=0.309;entryY=-0.006;entryDx=0;entryDy=0;entryPerimeter=0;exitX=0.25;exitY=1;exitDx=0;exitDy=0;" edge="1" parent="1" source="qf12VofWcmTvXpMIh8Xu-47" target="qf12VofWcmTvXpMIh8Xu-3">
          <mxGeometry width="50" height="50" relative="1" as="geometry">
            <mxPoint x="1260" y="280" as="sourcePoint" />
            <mxPoint x="1310" y="230" as="targetPoint" />
          </mxGeometry>
        </mxCell>
        <mxCell id="qf12VofWcmTvXpMIh8Xu-49" value="" style="endArrow=classic;html=1;rounded=0;fontFamily=Comic Sans MS;fontSize=20;fontColor=none;entryX=0.309;entryY=-0.006;entryDx=0;entryDy=0;entryPerimeter=0;exitX=0.25;exitY=1;exitDx=0;exitDy=0;" edge="1" parent="1">
          <mxGeometry width="50" height="50" relative="1" as="geometry">
            <mxPoint x="1500.28" y="220.9" as="sourcePoint" />
            <mxPoint x="1499.72" y="270" as="targetPoint" />
          </mxGeometry>
        </mxCell>
        <mxCell id="qf12VofWcmTvXpMIh8Xu-50" value="" style="endArrow=classic;html=1;rounded=0;fontFamily=Comic Sans MS;fontSize=20;fontColor=none;entryX=0.309;entryY=-0.006;entryDx=0;entryDy=0;entryPerimeter=0;exitX=0.25;exitY=1;exitDx=0;exitDy=0;" edge="1" parent="1">
          <mxGeometry width="50" height="50" relative="1" as="geometry">
            <mxPoint x="1530.56" y="220.9" as="sourcePoint" />
            <mxPoint x="1530" y="270" as="targetPoint" />
          </mxGeometry>
        </mxCell>
        <mxCell id="qf12VofWcmTvXpMIh8Xu-51" value="STL" style="rounded=1;whiteSpace=wrap;html=1;fontFamily=Comic Sans MS;fontSize=20;fillColor=#d5e8d4;gradientColor=#97d077;strokeColor=#82b366;" vertex="1" parent="1">
          <mxGeometry x="220" y="260" width="140" height="60" as="geometry" />
        </mxCell>
        <mxCell id="qf12VofWcmTvXpMIh8Xu-52" value="" style="endArrow=classic;html=1;rounded=0;fontFamily=Comic Sans MS;fontSize=20;fontColor=none;exitX=0.357;exitY=0.002;exitDx=0;exitDy=0;exitPerimeter=0;" edge="1" parent="1" source="qf12VofWcmTvXpMIh8Xu-51">
          <mxGeometry width="50" height="50" relative="1" as="geometry">
            <mxPoint x="190" y="270" as="sourcePoint" />
            <mxPoint x="270" y="210" as="targetPoint" />
          </mxGeometry>
        </mxCell>
        <mxCell id="qf12VofWcmTvXpMIh8Xu-53" value="" style="endArrow=classic;html=1;rounded=0;fontFamily=Comic Sans MS;fontSize=20;fontColor=none;exitX=0.288;exitY=0.013;exitDx=0;exitDy=0;exitPerimeter=0;" edge="1" parent="1">
          <mxGeometry width="50" height="50" relative="1" as="geometry">
            <mxPoint x="240.08000000000004" y="259.78" as="sourcePoint" />
            <mxPoint x="239.76" y="209" as="targetPoint" />
          </mxGeometry>
        </mxCell>
        <mxCell id="qf12VofWcmTvXpMIh8Xu-55" value="" style="endArrow=none;html=1;rounded=0;fontFamily=Comic Sans MS;fontSize=20;fontColor=none;" edge="1" parent="1">
          <mxGeometry width="50" height="50" relative="1" as="geometry">
            <mxPoint x="134" y="460" as="sourcePoint" />
            <mxPoint x="134" y="10" as="targetPoint" />
          </mxGeometry>
        </mxCell>
        <mxCell id="qf12VofWcmTvXpMIh8Xu-56" value="" style="endArrow=none;html=1;rounded=0;fontFamily=Comic Sans MS;fontSize=20;fontColor=none;" edge="1" parent="1">
          <mxGeometry width="50" height="50" relative="1" as="geometry">
            <mxPoint x="130" y="460" as="sourcePoint" />
            <mxPoint x="1600" y="460" as="targetPoint" />
          </mxGeometry>
        </mxCell>
        <mxCell id="qf12VofWcmTvXpMIh8Xu-57" value="" style="endArrow=none;html=1;rounded=0;fontFamily=Comic Sans MS;fontSize=20;fontColor=none;" edge="1" parent="1">
          <mxGeometry width="50" height="50" relative="1" as="geometry">
            <mxPoint x="1600" y="460" as="sourcePoint" />
            <mxPoint x="1600" y="7" as="targetPoint" />
          </mxGeometry>
        </mxCell>
        <mxCell id="qf12VofWcmTvXpMIh8Xu-58" value="" style="endArrow=none;html=1;rounded=0;fontFamily=Comic Sans MS;fontSize=20;fontColor=none;" edge="1" parent="1">
          <mxGeometry width="50" height="50" relative="1" as="geometry">
            <mxPoint x="137" y="10" as="sourcePoint" />
            <mxPoint x="1600" y="10" as="targetPoint" />
          </mxGeometry>
        </mxCell>
        <mxCell id="qf12VofWcmTvXpMIh8Xu-60" value="Analyzed data" style="rounded=1;whiteSpace=wrap;html=1;fontFamily=Comic Sans MS;fontSize=20;fontStyle=1;fillColor=#f8cecc;strokeColor=#b85450;" vertex="1" parent="1">
          <mxGeometry x="1180" y="161" width="200" height="158" as="geometry" />
        </mxCell>
        <mxCell id="qf12VofWcmTvXpMIh8Xu-61" value="" style="endArrow=classic;startArrow=classic;html=1;rounded=0;fontFamily=Comic Sans MS;fontSize=20;fontColor=none;exitX=0.5;exitY=0;exitDx=0;exitDy=0;entryX=0.159;entryY=-0.014;entryDx=0;entryDy=0;entryPerimeter=0;" edge="1" parent="1" source="qf12VofWcmTvXpMIh8Xu-60" target="qf12VofWcmTvXpMIh8Xu-47">
          <mxGeometry width="50" height="50" relative="1" as="geometry">
            <mxPoint x="1330" y="190" as="sourcePoint" />
            <mxPoint x="1420" y="170" as="targetPoint" />
            <Array as="points">
              <mxPoint x="1280" y="140" />
              <mxPoint x="1459" y="140" />
            </Array>
          </mxGeometry>
        </mxCell>
        <mxCell id="qf12VofWcmTvXpMIh8Xu-63" value="" style="endArrow=classic;html=1;rounded=0;fontFamily=Comic Sans MS;fontSize=20;fontColor=none;entryX=0.233;entryY=-0.009;entryDx=0;entryDy=0;entryPerimeter=0;exitX=0.142;exitY=0.99;exitDx=0;exitDy=0;exitPerimeter=0;" edge="1" parent="1" source="qf12VofWcmTvXpMIh8Xu-47" target="qf12VofWcmTvXpMIh8Xu-3">
          <mxGeometry width="50" height="50" relative="1" as="geometry">
            <mxPoint x="1440" y="280" as="sourcePoint" />
            <mxPoint x="1490" y="230" as="targetPoint" />
          </mxGeometry>
        </mxCell>
        <mxCell id="qf12VofWcmTvXpMIh8Xu-64" value="Function call" style="text;html=1;strokeColor=none;fillColor=none;align=center;verticalAlign=middle;whiteSpace=wrap;rounded=0;fontFamily=Comic Sans MS;fontSize=20;fontColor=none;" vertex="1" parent="1">
          <mxGeometry x="1270" y="140" width="170" height="20" as="geometry" />
        </mxCell>
        <mxCell id="qf12VofWcmTvXpMIh8Xu-65" value="" style="endArrow=classic;startArrow=classic;html=1;rounded=0;fontFamily=Comic Sans MS;fontSize=20;fontColor=none;exitX=0.5;exitY=1;exitDx=0;exitDy=0;entryX=0.15;entryY=1.042;entryDx=0;entryDy=0;entryPerimeter=0;" edge="1" parent="1" source="qf12VofWcmTvXpMIh8Xu-60" target="qf12VofWcmTvXpMIh8Xu-51">
          <mxGeometry width="50" height="50" relative="1" as="geometry">
            <mxPoint x="1000" y="320" as="sourcePoint" />
            <mxPoint x="190" y="320" as="targetPoint" />
            <Array as="points">
              <mxPoint x="1280" y="410" />
              <mxPoint x="241" y="410" />
            </Array>
          </mxGeometry>
        </mxCell>
        <mxCell id="qf12VofWcmTvXpMIh8Xu-66" value="Function call" style="text;html=1;strokeColor=none;fillColor=none;align=center;verticalAlign=middle;whiteSpace=wrap;rounded=0;fontFamily=Comic Sans MS;fontSize=20;fontColor=none;" vertex="1" parent="1">
          <mxGeometry x="1130" y="390" width="170" height="20" as="geometry" />
        </mxCell>
        <mxCell id="qf12VofWcmTvXpMIh8Xu-76" value="" style="endArrow=classic;html=1;rounded=0;fontFamily=Comic Sans MS;fontSize=20;fontColor=none;exitX=0.288;exitY=0.013;exitDx=0;exitDy=0;exitPerimeter=0;" edge="1" parent="1">
          <mxGeometry width="50" height="50" relative="1" as="geometry">
            <mxPoint x="330.32000000000005" y="260" as="sourcePoint" />
            <mxPoint x="330" y="209.22000000000003" as="targetPoint" />
          </mxGeometry>
        </mxCell>
        <mxCell id="qf12VofWcmTvXpMIh8Xu-77" value="" style="endArrow=classic;html=1;rounded=0;fontFamily=Comic Sans MS;fontSize=20;fontColor=none;exitX=0.571;exitY=0;exitDx=0;exitDy=0;exitPerimeter=0;" edge="1" parent="1" source="qf12VofWcmTvXpMIh8Xu-51">
          <mxGeometry width="50" height="50" relative="1" as="geometry">
            <mxPoint x="330.32000000000005" y="260" as="sourcePoint" />
            <mxPoint x="300" y="210" as="targetPoint" />
          </mxGeometry>
        </mxCell>
      </root>
    </mxGraphModel>
  </diagram>
</mxfile>
